<?xml version="1.0" encoding="UTF-8" standalone="no"?>
<!-- Created with Inkscape (http://www.inkscape.org/) -->

<svg
   width="143.41554mm"
   height="46.669041mm"
   viewBox="0 0 143.41554 46.669041"
   version="1.1"
   id="svg1"
   inkscape:version="1.3.2 (091e20e, 2023-11-25)"
   sodipodi:docname="orange.svg"
   xmlns:inkscape="http://www.inkscape.org/namespaces/inkscape"
   xmlns:sodipodi="http://sodipodi.sourceforge.net/DTD/sodipodi-0.dtd"
   xmlns="http://www.w3.org/2000/svg"
   xmlns:svg="http://www.w3.org/2000/svg">
  <sodipodi:namedview
     id="namedview1"
     pagecolor="#f05023"
     bordercolor="#000000"
     borderopacity="0.25"
     inkscape:showpageshadow="2"
     inkscape:pageopacity="0.0"
     inkscape:pagecheckerboard="0"
     inkscape:deskcolor="#d1d1d1"
     inkscape:document-units="mm"
     inkscape:zoom="0.57704365"
     inkscape:cx="339.66235"
     inkscape:cy="347.46072"
     inkscape:window-width="1392"
     inkscape:window-height="972"
     inkscape:window-x="0"
     inkscape:window-y="25"
     inkscape:window-maximized="0"
     inkscape:current-layer="layer1" />
  <defs
     id="defs1" />
  <g
     inkscape:label="Layer 1"
     inkscape:groupmode="layer"
     id="layer1"
     transform="translate(-32.409634,-122.01116)">
    <g
       id="g41"
       transform="translate(4.3832453,-75.645412)">
      <path
         style="fill:#ffffff;stroke:#f05023;stroke-width:1.5;stroke-linecap:round;stroke-linejoin:round;stroke-dasharray:none;stroke-dashoffset:136.8;stroke-opacity:1"
         d="m 79.508764,216.66099 8.090149,-1e-5 5.000001,8.66025 -8.090152,10e-6 z"
         id="path3" />
      <path
         style="fill:#ffffff;stroke:#f05023;stroke-width:1.5;stroke-linecap:round;stroke-linejoin:round;stroke-dasharray:none;stroke-dashoffset:136.8;stroke-opacity:1"
         d="m 82.598912,199.34048 -12.499996,21.65062 12.499999,21.65064 2.5,-4.33013 -5,-8.66025 7.499998,-12.99037 5.000001,8.66024 2.5,-4.33012 z"
         id="path24" />
      <path
         style="fill:#ffffff;stroke:#f05023;stroke-width:1.5;stroke-linecap:round;stroke-linejoin:round;stroke-dasharray:none;stroke-dashoffset:136.8;stroke-opacity:1"
         d="m 85.098913,212.33086 -2.499998,-4.33013 -7.500001,12.99038 2.500001,4.33012 z"
         id="path25" />
      <path
         style="fill:#ffffff;stroke:#f05023;stroke-width:1.5;stroke-linecap:round;stroke-linejoin:round;stroke-dasharray:none;stroke-dashoffset:136.8;stroke-opacity:1"
         d="m 50.238313,199.34048 -12.499996,21.65063 12.499998,21.65063 2.500001,-4.33013 -5.000001,-8.66025 9.999999,-17.3205 z"
         id="path26" />
      <path
         style="fill:#ffffff;stroke:#f05023;stroke-width:1.5;stroke-linecap:round;stroke-linejoin:round;stroke-dasharray:none;stroke-dashoffset:136.8;stroke-opacity:1"
         d="m 52.738313,212.33086 -2.5,-4.33013 -7.499998,12.99038 2.5,4.33012 z"
         id="path27" />
      <path
         style="fill:#ffffff;stroke:#f05023;stroke-width:1.5;stroke-linecap:round;stroke-linejoin:round;stroke-dasharray:none;stroke-dashoffset:136.8;stroke-opacity:1"
         d="m 42.148164,199.34048 h 8.090149 l -12.499996,21.65063 h -8.090151 z"
         id="path28" />
      <path
         style="fill:#ffffff;stroke:#f05023;stroke-width:1.5;stroke-linecap:round;stroke-linejoin:round;stroke-dasharray:none;stroke-dashoffset:136.8;stroke-opacity:1"
         d="M 74.508764,199.34048 H 82.59891 L 70.098914,220.9911 h -8.090149 z"
         id="path29" />
      <path
         style="fill:#ffffff;stroke:#f05023;stroke-width:1.5;stroke-linecap:round;stroke-linejoin:round;stroke-dasharray:none;stroke-dashoffset:136.8;stroke-opacity:1"
         d="m 110.23094,212.33084 h -8.09015 l -2.500002,4.33013 8.090152,-1e-5 z"
         id="path30" />
      <path
         style="fill:#ffffff;stroke:#f05023;stroke-width:1.5;stroke-linecap:round;stroke-linejoin:round;stroke-dasharray:none;stroke-dashoffset:136.8;stroke-opacity:1"
         d="m 157.32012,242.64173 -12.5,-21.65064 h -8.09015 l 12.49999,21.65064 z"
         id="path31" />
      <path
         style="fill:#ffffff;stroke:#f05023;stroke-width:1.5;stroke-linecap:round;stroke-linejoin:round;stroke-dasharray:none;stroke-dashoffset:136.8;stroke-opacity:1"
         d="m 139.22997,216.66096 -2.5,4.33013 h 8.09015 l 1.90985,-4.33013 z"
         id="path32" />
      <path
         style="fill:#ffffff;stroke:#f05023;stroke-width:1.5;stroke-linecap:round;stroke-linejoin:round;stroke-dasharray:none;stroke-dashoffset:136.8;stroke-opacity:1"
         d="m 149.22996,199.34046 -2.49999,4.33012 8.09014,1e-5 2.5,-4.33013 z"
         id="path33" />
      <path
         style="fill:#ffffff;stroke:#f05023;stroke-width:1.5;stroke-linecap:round;stroke-linejoin:round;stroke-dasharray:none;stroke-dashoffset:136.8;stroke-opacity:1"
         d="m 62.008765,220.9911 h 8.090149 l 12.500001,21.65064 h -8.090151 z"
         id="path34" />
      <path
         style="fill:#ffffff;stroke:#f05023;stroke-width:1.5;stroke-linecap:round;stroke-linejoin:round;stroke-dasharray:none;stroke-dashoffset:136.8;stroke-opacity:1"
         d="m 29.648166,220.99111 h 8.090151 l 12.499998,21.65063 h -8.090151 z"
         id="path35" />
      <path
         style="fill:#ffffff;stroke:#f05023;stroke-width:1.5;stroke-linecap:round;stroke-linejoin:round;stroke-dasharray:none;stroke-dashoffset:136.8;stroke-opacity:1"
         d="m 159.82012,212.33084 7.49999,12.99038 h -8.09015 l -7.5,-12.99037 z"
         id="path36" />
      <path
         style="fill:#ffffff;stroke:#f05023;stroke-width:1.5;stroke-linecap:round;stroke-linejoin:round;stroke-dasharray:none;stroke-dashoffset:136.8;stroke-opacity:1"
         d="m 112.14079,229.65135 10,-17.3205 h 8.09014 l -9.99999,17.3205 z"
         id="path37"
         sodipodi:nodetypes="ccccc" />
      <path
         style="fill:#ffffff;stroke:#f05023;stroke-width:1.5;stroke-linecap:round;stroke-linejoin:round;stroke-dasharray:none;stroke-dashoffset:136.8;stroke-opacity:1"
         d="m 130.23093,212.33085 -9.99999,17.3205 -10,-17.32051 -2.5,4.33012 12.5,21.65064 12.49999,-21.65062 z"
         id="path38" />
      <path
         style="fill:#ffffff;stroke:#f05023;stroke-width:1.5;stroke-linecap:round;stroke-linejoin:round;stroke-dasharray:none;stroke-dashoffset:136.8;stroke-opacity:1"
         d="m 99.640788,216.66097 8.090152,-1e-5 12.5,21.65064 -8.09016,1e-5 z"
         id="path39" />
      <path
         style="fill:#ffffff;stroke:#f05023;stroke-width:1.5;stroke-linecap:round;stroke-linejoin:round;stroke-dasharray:none;stroke-dashoffset:136.8;stroke-opacity:1"
         d="m 169.82011,220.9911 -12.5,-21.65064 -2.49999,4.33012 v 12.99037 l -7.50001,10e-6 -2.49999,4.33013 12.5,21.65064 2.5,-4.33013 -7.5,-12.99038 4.99999,-1e-5 2.50001,-4.33011 -1e-5,-8.66025 7.5,12.99037 z"
         id="path40" />
      <path
         style="fill:#ffffff;stroke:#f05023;stroke-width:1.5;stroke-linecap:round;stroke-linejoin:round;stroke-dasharray:none;stroke-dashoffset:136.8;stroke-opacity:1"
         d="m 154.82012,216.66096 -8.09015,-10e-6 -1e-5,-12.99035 8.09015,-1e-5 z"
         id="path41" />
    </g>
  </g>
</svg>
